# xmcd CD database file
#
# Track frame offsets:
#	150
#	20427
#	36682
#	52045
#	71075
#
# Disc length: 1190 seconds
#
# Revision: 0
# Processed by: cddbd v1.4PL0 Copyright (c) Steve Scherf et al.
# Submitted via: CDex 1.50
#
DISCID=4804a405
DTITLE=Fatamorgana - DEMO
DYEAR=2003
DGENRE=Nederhop
TTITLE0=Niemand weet hoe ik me voel
TTITLE1=MC
TTITLE2=Verslaafd
TTITLE3=Hoe izzie
TTITLE4=Kaasghetto
EXTD=YEAR: 2003
EXTT0=
EXTT1=
EXTT2=
EXTT3=
EXTT4=
PLAYORDER=
